# xmcd CD database file
#
# Track frame offsets:
#	150
#	69333
#	121005
#	163809
#	172759
#	231665
#	265265
#
# Disc length: 4254 seconds
#
# Revision: 0
# Processed by: cddbd v1.5.2PL0 Copyright (c) Steve Scherf et al.
# Submitted via: CDex 1.51
#
DISCID=57109c07
DTITLE=Francois Jeanneau and Uli Lenz - Art of the Duo, Walking in the Wind
DYEAR=1900
DGENRE=Jazz
TTITLE0=Waltz for C.C.
TTITLE1=Alice in the Sky
TTITLE2=Hero Darling
TTITLE3=Egon Schiele
TTITLE4=The Pink Lake
TTITLE5=Who
TTITLE6=Love Channel
EXTD=
EXTT0=
EXTT1=
EXTT2=
EXTT3=
EXTT4=
EXTT5=
EXTT6=
PLAYORDER=
